<svg width="170" height="53" viewBox="0 0 170 53" fill="none" xmlns="http://www.w3.org/2000/svg">
<path d="M26.495 52.9959C23.6942 52.9959 20.8934 52.9959 18.0927 52.9959C17.0994 52.9959 16.1225 52.8135 15.1943 52.4158C13.973 51.9021 12.9635 51.1067 12.1493 50.0627C9.39741 46.5329 6.62922 43.0198 3.86103 39.49C3.1283 38.562 2.39557 37.6174 1.66285 36.6894C0.457892 35.1317 -0.112124 33.3751 0.018256 31.4031C0.0670161 30.6574 0.246157 29.9116 0.409 29.1824C1.59766 23.9625 2.77015 18.7589 3.92622 13.5721C4.4798 11.103 5.8639 9.31315 8.0948 8.2195C13.1425 5.75036 18.1741 3.26453 23.2219 0.795397C25.404 -0.265132 27.6021 -0.265132 29.7841 0.795397C34.832 3.26453 39.8962 5.7338 44.9439 8.2195C47.1422 9.29659 48.5263 11.0864 49.0636 13.5058C50.3174 19.0573 51.555 24.6088 52.7925 30.1602C53.3135 32.5299 52.8576 34.7008 51.3758 36.6065C47.8586 41.1306 44.3251 45.638 40.7754 50.129C39.2774 52.0181 37.2908 52.9627 34.9134 52.9793C32.1127 53.0124 29.3119 52.9959 26.495 52.9959ZM26.495 48.1735C28.5466 48.1735 30.6147 48.1735 32.6663 48.1735C33.1059 48.1735 33.5456 48.1404 33.9852 48.0575C35.8741 47.7095 37.4048 46.7649 38.5934 45.2404C39.6031 43.9477 40.6126 42.6717 41.6058 41.3792C43.1365 39.4238 44.6834 37.4683 46.214 35.4963C47.6958 33.5906 48.2169 31.4363 47.6958 29.0665C46.8165 24.9899 45.8884 20.9133 44.9602 16.8366C44.4066 14.4173 43.0388 12.6441 40.8405 11.5504C37.193 9.74404 33.5293 7.95437 29.8656 6.16456C27.6184 5.0709 25.3714 5.0709 23.1243 6.16456C19.4931 7.95437 15.8457 9.74404 12.1982 11.5339C9.98359 12.6275 8.59949 14.4006 8.04591 16.8366C7.2154 20.5156 6.38502 24.1945 5.57081 27.8733C5.40796 28.6025 5.22882 29.3151 5.16377 30.0608C4.98463 32.1323 5.58711 33.9717 6.87355 35.5957C9.36482 38.7609 11.8562 41.926 14.3313 45.1077C15.927 47.1627 17.9949 48.1735 20.5678 48.1735C22.5381 48.1735 24.5084 48.1735 26.495 48.1735Z" fill="#EDEDED"/>
<mask id="mask0_168_3658" style="mask-type:luminance" maskUnits="userSpaceOnUse" x="62" y="15" width="108" height="23">
<path d="M170 15H62V38H170V15Z" fill="white"/>
</mask>
<g mask="url(#mask0_168_3658)">
<path d="M169.987 35.0855C169.973 35.151 169.96 35.2034 169.946 35.269C169.746 36.2781 168.876 36.9728 167.791 36.9859C166.76 37.0121 165.85 36.3437 165.622 35.3738C165.569 35.151 165.556 34.9151 165.556 34.6923C165.556 30.6425 165.556 26.5928 165.556 22.543C165.556 22.4775 165.556 22.4119 165.556 22.3464C165.542 22.3464 165.529 22.3333 165.515 22.3333C165.475 22.3726 165.435 22.425 165.395 22.4643C161.606 27.0384 157.818 31.6124 154.016 36.1864C153.427 36.8941 152.637 37.13 151.74 36.9334C150.884 36.7368 150.295 36.2126 150.067 35.3476C150.013 35.1641 150.013 34.9806 150.013 34.784C150.013 28.9256 150.027 23.0541 150 17.1957C150 15.6754 151.566 14.6138 153.079 15.1381C153.869 15.4133 154.431 16.1996 154.444 17.0384C154.458 17.5758 154.444 18.1 154.444 18.6374C154.444 22.2546 154.444 25.885 154.444 29.5023C154.444 29.5678 154.444 29.6203 154.444 29.7382C154.511 29.6596 154.552 29.6203 154.592 29.5809C158.407 24.9938 162.222 20.4067 166.024 15.8327C166.975 14.6925 168.701 14.7318 169.585 15.8982C169.786 16.1603 169.906 16.4618 169.96 16.7894C169.96 16.8287 169.987 16.8681 170 16.9074C169.987 22.9624 169.987 29.0174 169.987 35.0855Z" fill="#EDEDED"/>
<path d="M138.723 15C138.947 15.0268 139.158 15.0402 139.383 15.0669C141.519 15.2142 143.379 16.0442 145.028 17.3829C145.226 17.5435 145.437 17.7309 145.582 17.9451C146.07 18.6278 146.136 19.3775 145.753 20.1138C145.358 20.8768 144.685 21.2249 143.841 21.2249C143.3 21.2249 142.825 21.0107 142.416 20.6626C141.757 20.1138 141.045 19.6319 140.227 19.3909C139.343 19.1232 138.433 19.0562 137.536 19.1633C134.331 19.5649 131.93 21.8675 131.39 25.1071C130.981 27.5167 131.508 29.7122 133.131 31.5729C134.226 32.8179 135.597 33.5944 137.246 33.8085C138.789 34.0093 140.24 33.7014 141.572 32.9116C141.928 32.6974 142.271 32.4699 142.614 32.2423C143.26 31.7871 143.959 31.6666 144.698 31.9745C145.45 32.2958 145.846 32.8982 145.898 33.7282C145.951 34.5448 145.635 35.1874 144.988 35.6693C143.471 36.8206 141.783 37.597 139.897 37.8648C136.191 38.3868 132.933 37.4096 130.255 34.7188C128.673 33.1258 127.683 31.1847 127.248 28.9759C127.011 27.7711 126.932 26.5529 127.064 25.3347C127.538 21.0241 129.701 17.9049 133.553 16.004C134.779 15.4016 136.085 15.1071 137.444 15.0402C137.51 15.0402 137.562 15.0268 137.628 15.0134C137.998 15 138.354 15 138.723 15Z" fill="#EDEDED"/>
<path d="M79.6979 25.2883C79.4789 25.7208 79.2728 26.1663 79.0539 26.5988C77.6756 29.4162 76.2845 32.2337 74.9063 35.0511C74.5328 35.7981 73.6955 36.2698 72.8712 36.2043C72.0082 36.1388 71.4286 35.6933 71.0422 34.9201C69.5094 31.8406 67.9766 28.761 66.4309 25.6946C66.3923 25.6159 66.3536 25.5504 66.315 25.4718C66.3021 25.4718 66.2892 25.4718 66.2763 25.4718C66.2763 25.5373 66.2763 25.5897 66.2763 25.6553C66.2763 28.6824 66.2763 31.7095 66.2763 34.7366C66.2763 35.3263 66.1347 35.8505 65.7354 36.283C65.1429 36.9382 64.3958 37.1347 63.5714 36.912C62.76 36.6892 62.2447 36.1388 62.0515 35.3001C62.0129 35.1298 62 34.9594 62 34.789C62 28.9314 62 23.0737 62 17.216C62 16.1546 62.6312 15.3159 63.5972 15.0669C64.6019 14.8179 65.5808 15.2766 66.0574 16.2332C68.0925 20.2956 70.1276 24.371 72.1499 28.4334C72.4333 28.9969 72.7166 29.5604 73 30.1239C73.0258 30.1632 73.0515 30.2156 73.0902 30.2811C73.1288 30.2156 73.1546 30.1632 73.1803 30.0977C75.4344 25.4849 77.6756 20.859 79.9297 16.2463C80.3162 15.4469 80.9602 15.0014 81.8489 15.0014C82.6862 15.0014 83.3302 15.3814 83.7553 16.1283C83.9356 16.4429 84 16.7967 84 17.1636C84 22.2219 84 27.2802 84 32.3254C84 33.1641 84 34.0159 84 34.8546C84 35.8767 83.2143 36.794 82.2096 36.9513C81.1534 37.1216 80.1358 36.5057 79.8396 35.4967C79.7623 35.2477 79.7365 34.9856 79.7365 34.7235C79.7236 31.644 79.7365 28.5513 79.7365 25.4718C79.7365 25.4063 79.7365 25.3408 79.7365 25.2752C79.7236 25.2883 79.7108 25.2883 79.6979 25.2883Z" fill="#EDEDED"/>
<path d="M118.021 27.1865C118.328 26.5357 118.61 25.9255 118.905 25.3017C120.29 22.3322 121.687 19.349 123.084 16.3795C123.186 16.1489 123.315 15.932 123.468 15.7422C123.968 15.1048 124.622 14.9015 125.365 15.0913C125.596 15.1591 125.84 15.254 126.045 15.376C126.878 15.8506 127.185 16.7049 126.891 17.6541C126.839 17.8168 126.775 17.9795 126.698 18.1287C124.34 23.1729 121.969 28.2171 119.61 33.2613C119.046 34.4681 118.341 35.58 117.38 36.5021C116.624 37.2207 115.765 37.736 114.765 37.9123C113.394 38.1699 112.125 37.858 110.997 37.0038C110.33 36.5021 110.035 35.7834 110.228 34.9291C110.407 34.1156 110.869 33.5325 111.663 33.3155C112.253 33.1528 112.83 33.2342 113.355 33.546C113.791 33.8037 114.176 33.7359 114.56 33.4511C115.047 33.085 115.406 32.5969 115.701 32.0545C115.816 31.8375 115.996 31.6206 115.996 31.4036C115.996 31.2002 115.803 30.9833 115.688 30.7934C113.265 26.6577 110.843 22.522 108.408 18.3863C108.228 18.0744 108.074 17.749 108.023 17.3829C107.946 16.8676 108.062 16.4066 108.369 15.9998C108.779 15.4574 109.318 15.132 109.971 15.0235C110.651 14.915 111.227 15.1862 111.65 15.7557C111.894 16.0947 112.099 16.4744 112.304 16.8405C114.176 20.2169 116.047 23.6068 117.905 26.9831C117.944 27.0645 117.97 27.1052 118.021 27.1865Z" fill="#EDEDED"/>
<path d="M98.1357 19.0777C98.1357 19.1826 98.1357 19.2481 98.1357 19.3268C98.1357 24.4796 98.1357 29.6194 98.1357 34.7722C98.1357 35.5196 97.866 36.1358 97.2752 36.5816C96.0551 37.4863 94.1543 36.8832 93.8974 35.1655C93.8717 35.0082 93.8845 34.8378 93.8845 34.6804C93.8845 29.5669 93.8845 24.4534 93.8845 19.3268C93.8845 19.0515 93.8974 19.0908 93.6534 19.0908C92.125 19.0908 90.5966 19.0908 89.0811 19.0908C88.6829 19.0908 88.2976 19.0121 87.938 18.8023C87.2573 18.3959 86.9876 17.7534 87.0004 16.9798C87.0261 15.9703 87.6555 15.236 88.6316 15.0393C88.7857 15.0131 88.9398 15 89.0939 15C93.7047 15 98.3027 15 102.914 15C104.031 15 104.737 15.7736 104.917 16.4554C105.29 17.819 104.365 19.0777 102.952 19.0908C101.424 19.0908 99.8953 19.0908 98.3669 19.0908C98.2899 19.0777 98.2256 19.0777 98.1357 19.0777Z" fill="#EDEDED"/>
</g>
</svg>
